Coordinates
version=1
nRows=14
nColumns=46
inDegrees=yes

Units are S.I. units (second, meters, Newtons, ...)
Angles are in degrees.

endheader
time	pelvis_tilt	pelvis_list	pelvis_rotation	pelvis_tx	pelvis_ty	pelvis_tz	bb_angle	bb_tx	bb_ty	bb_tz	hip_flexion_r	hip_adduction_r	hip_rotation_r	knee_angle_r	knee_angle_r_beta	ankle_angle_r	subtalar_angle_r	mtp_angle_r	crank_angle_r	hip_flexion_l	hip_adduction_l	hip_rotation_l	knee_angle_l	knee_angle_l_beta	ankle_angle_l	subtalar_angle_l	mtp_angle_l	crank_angle_l	lumbar_extension	lumbar_bending	lumbar_rotation	arm_flex_r	arm_add_r	arm_rot_r	elbow_flex_r	pro_sup_r	wrist_flex_r	wrist_dev_r	arm_flex_l	arm_add_l	arm_rot_l	elbow_flex_l	pro_sup_l	wrist_flex_l	wrist_dev_l
      0.00000000	    -40.93370667	     -1.40549553	      0.06261137	      0.07676449	      0.96893704	     -0.21472701	      0.00000000	      0.50000000	      0.00000000	      0.25000000	    109.07203142	    -11.56391427	     -6.13824018	     82.84897238	      1.44598735	      5.20662461	      1.08487160	      0.00000000	      0.00000000	     81.44135350	     -9.77372691	     -0.86364796	     79.32189150	      1.38442818	     -8.95369954	    -11.28705697	      0.00000000	      0.00000000	    -21.99056993	      2.88901673	      1.00834988	     88.09292609	     -6.00030575	     58.06422241	     24.78876654	     43.92435380	      0.00000000	      0.00000000	     86.74375658	    -14.58712389	     59.75429545	     29.90858427	     44.79312265	      0.00000000	      0.00000000
      0.00500000	    -40.90662659	     -1.40519161	      0.06395142	      0.07675878	      0.96896358	     -0.21473660	      0.00000000	      0.50000000	      0.00000000	      0.25000000	    109.05759892	    -11.58594872	     -6.16026166	     82.87367334	      1.44641846	      5.22179291	      1.11138471	      0.00000000	      0.00000000	     81.40782224	     -9.79407092	     -0.88610352	     79.31884290	      1.38437497	     -8.89091680	    -11.15846600	      0.00000000	      0.00000000	    -22.01409105	      2.90535063	      0.96959866	     88.04418880	     -5.58675388	     57.05039518	     24.38465116	     43.48942205	      0.00000000	      0.00000000	     86.61076602	    -14.35499465	     58.79558142	     29.66601246	     44.51085764	      0.00000000	      0.00000000
      0.01000000	    -40.91117275	     -1.39843140	      0.07756533	      0.07670241	      0.96891963	     -0.21469693	      0.00000000	      0.50000000	      0.00000000	      0.25000000	    109.07189179	    -11.57899630	     -6.13680786	     82.87788355	      1.44649194	      5.22521576	      1.05829569	      0.00000000	      0.00000000	     81.41454742	     -9.79010559	     -0.89802583	     79.30468290	      1.38412783	     -8.89708868	    -11.19448776	      0.00000000	      0.00000000	    -22.03430891	      2.87554298	      0.96765441	     88.12734696	     -6.03858326	     58.43636153	     24.80680987	     43.76037521	      0.00000000	      0.00000000	     86.78785676	    -14.75031745	     60.18744619	     30.08148639	     44.83896872	      0.00000000	      0.00000000
      0.01500000	    -40.95100038	     -1.37099152	      0.19429198	      0.07677834	      0.96898882	     -0.21502783	      0.00000000	      0.50000000	      0.00000000	      0.25000000	    109.11480310	    -11.73907789	     -6.09312942	     82.89299933	      1.44675577	      5.27297597	      1.13398680	      0.00000000	      0.00000000	     81.38867140	     -9.60001731	     -0.93111279	     79.20239795	      1.38234262	     -9.12169734	    -11.65997668	      0.00000000	      0.00000000	    -22.01014796	      2.89210642	      0.87494730	     88.03564390	     -6.15484103	     57.90608898	     25.19812085	     43.76715856	      0.00000000	      0.00000000	     86.65492267	    -14.70273694	     59.47303256	     30.36452890	     44.78546742	      0.00000000	      0.00000000
      0.02000000	    -40.95129180	     -1.46475633	      0.07709558	      0.07671462	      0.96842612	     -0.21472794	      0.00000000	      0.50000000	      0.00000000	      0.25000000	    109.14234157	    -11.61304959	     -6.16827677	     82.96913206	      1.44808453	      5.36696612	      1.19584027	      0.00000000	      0.00000000	     81.39247374	     -9.77843686	     -0.83506547	     79.21783618	      1.38261207	     -8.92036858	    -11.30032024	      0.00000000	      0.00000000	    -21.96746052	      2.95511759	      0.98908225	     88.00701102	     -5.70608656	     57.58539985	     24.32980544	     43.64267757	      0.00000000	      0.00000000	     86.49066742	    -14.29081529	     58.66742865	     29.76249694	     44.61732312	      0.00000000	      0.00000000
      0.02500000	    -40.91927246	     -1.50407618	      0.07887094	      0.07665083	      0.96852201	     -0.21471243	      0.00000000	      0.50000000	      0.00000000	      0.25000000	    109.10143281	    -11.61113384	     -6.20721699	     82.96000878	      1.44792530	      5.38667726	      1.13621098	      0.00000000	      0.00000000	     81.35237369	     -9.78308921	     -0.80505074	     79.16746057	      1.38173285	     -9.01026315	    -11.40677799	      0.00000000	      0.00000000	    -22.05505804	      2.95697750	      1.01770973	     88.19999589	     -6.64758797	     60.17295529	     25.44928731	     44.19523148	      0.00000000	      0.00000000	     86.77935294	    -14.99282560	     60.60309890	     30.71826514	     45.17486672	      0.00000000	      0.00000000
      0.03000000	    -40.89331786	     -1.51314861	      0.08392490	      0.07661928	      0.96852810	     -0.21471155	      0.00000000	      0.50000000	      0.00000000	      0.25000000	    109.08951305	    -11.62058509	     -6.21660071	     82.98412930	      1.44834628	      5.39284524	      1.12924005	      0.00000000	      0.00000000	     81.32847383	     -9.78855573	     -0.80259256	     79.15838237	      1.38157440	     -9.01081106	    -11.34934750	      0.00000000	      0.00000000	    -22.09265610	      2.96095154	      1.04122376	     88.16920920	     -6.47552519	     59.54566010	     25.25449915	     44.04764795	      0.00000000	      0.00000000	     86.67427148	    -14.71607414	     59.80365566	     30.48507537	     45.04533777	      0.00000000	      0.00000000
      0.03500000	    -40.83896096	     -1.45918542	      0.14078538	      0.07658921	      0.96861835	     -0.21482544	      0.00000000	      0.50000000	      0.00000000	      0.25000000	    109.07953925	    -11.68143550	     -6.14446787	     83.02324381	      1.44902896	      5.40708260	      1.14097122	      0.00000000	      0.00000000	     81.24520129	     -9.71535132	     -0.89083970	     79.09857971	      1.38053065	     -9.19267247	    -11.61529566	      0.00000000	      0.00000000	    -22.15693469	      2.93732460	      0.92440851	     88.12203755	     -6.01686720	     58.46762350	     24.72060848	     43.82508568	      0.00000000	      0.00000000	     86.49610969	    -14.45257751	     58.39722054	     30.27636892	     44.75162288	      0.00000000	      0.00000000
      0.04000000	    -40.86257930	     -1.51163607	      0.09518479	      0.07653767	      0.96854316	     -0.21470623	      0.00000000	      0.50000000	      0.00000000	      0.25000000	    109.09148992	    -11.63035483	     -6.20935325	     83.02803113	      1.44911251	      5.39750888	      1.10751264	      0.00000000	      0.00000000	     81.29263772	     -9.80300736	     -0.83378117	     79.12402599	      1.38097477	     -9.05594589	    -11.35553861	      0.00000000	      0.00000000	    -22.15308628	      2.94951626	      1.00290063	     88.21937144	     -6.68295736	     60.15888186	     25.53729207	     44.19196913	      0.00000000	      0.00000000	     86.74031322	    -14.96445735	     60.20484609	     30.83068181	     45.20400610	      0.00000000	      0.00000000
      0.04500000	    -40.82354143	     -1.48089363	      0.09356953	      0.07651016	      0.96857208	     -0.21467822	      0.00000000	      0.50000000	      0.00000000	      0.25000000	    109.08459493	    -11.62028197	     -6.17923618	     83.05408071	      1.44956717	      5.38299690	      1.05571281	      0.00000000	      0.00000000	     81.23600294	     -9.81358537	     -0.87578705	     79.10741587	      1.38068487	     -8.94641599	    -11.17926686	      0.00000000	      0.00000000	    -22.19199339	      2.92252451	      0.95713528	     88.19951844	     -6.12532944	     59.18010206	     24.74410692	     43.82798324	      0.00000000	      0.00000000	     86.55273532	    -14.62702062	     58.80167538	     30.48510939	     44.94030143	      0.00000000	      0.00000000
      0.05000000	    -40.81642585	     -1.49925305	      0.11225417	      0.07642304	      0.96855697	     -0.21470715	      0.00000000	      0.50000000	      0.00000000	      0.25000000	    109.09394348	    -11.63784701	     -6.18281489	     83.07439082	      1.44992164	      5.39673386	      1.06325568	      0.00000000	      0.00000000	     81.24591704	     -9.80779629	     -0.87660312	     79.09256949	      1.38042575	     -9.08475825	    -11.33306926	      0.00000000	      0.00000000	    -22.22120100	      2.92901225	      0.98619049	     88.24121285	     -6.64031206	     60.03232597	     25.50264192	     44.00322398	      0.00000000	      0.00000000	     86.70463658	    -14.94253835	     59.96711775	     30.91620636	     45.19640563	      0.00000000	      0.00000000
      0.05500000	    -40.75675195	     -1.50481703	      0.21236515	      0.07640387	      0.96866680	     -0.21489573	      0.00000000	      0.50000000	      0.00000000	      0.25000000	    109.06628282	    -11.76407552	     -6.17596366	     83.12973615	      1.45088760	      5.37945908	      1.07043259	      0.00000000	      0.00000000	     81.18129686	     -9.69627722	     -0.85868357	     79.04799649	      1.37964781	     -9.20257041	    -11.44870923	      0.00000000	      0.00000000	    -22.30649814	      2.97148668	      0.88196835	     88.17844442	     -6.32239498	     58.81748537	     25.28583047	     43.80072139	      0.00000000	      0.00000000	     86.53413358	    -14.60380886	     58.42326503	     30.72434766	     44.92303918	      0.00000000	      0.00000000
      0.06000000	    -40.75543244	     -1.49859166	      0.13364016	      0.07638430	      0.96863982	     -0.21475686	      0.00000000	      0.50000000	      0.00000000	      0.25000000	    109.07516430	    -11.66393622	     -6.17350332	     83.13345704	      1.45095254	      5.38683868	      1.01111250	      0.00000000	      0.00000000	     81.17216167	     -9.81015327	     -0.89625056	     79.06113242	      1.37987707	     -9.01588957	    -11.19054959	      0.00000000	      0.00000000	    -22.28841191	      2.93818275	      0.95875684	     88.21817350	     -6.27433423	     59.16563350	     25.00860817	     43.80983518	      0.00000000	      0.00000000	     86.53941557	    -14.58296423	     58.73963874	     30.56880346	     44.95403946	      0.00000000	      0.00000000
      0.06500000	    -40.73102123	     -1.45563857	      0.13384367	      0.07636066	      0.96870493	     -0.21476454	      0.00000000	      0.50000000	      0.00000000	      0.25000000	    109.08000499	    -11.65492806	     -6.13331753	     83.14646201	      1.45117952	      5.33864049	      1.02449050	      0.00000000	      0.00000000	     81.12861312	     -9.80643213	     -0.95584213	     79.02806678	      1.37929997	     -9.05892270	    -11.18280625	      0.00000000	      0.00000000	    -22.32606392	      2.88415946	      0.91897002	     88.20527358	     -6.25290941	     59.17223753	     25.00843543	     43.77708653	      0.00000000	      0.00000000	     86.54142790	    -14.62614513	     58.68054397	     30.64847280	     44.95899813	      0.00000000	      0.00000000
